<svg width="170" height="40" viewBox="0 0 170 40" fill="none" xmlns="http://www.w3.org/2000/svg">
<g clip-path="url(#clip0_1_89)">
<path d="M20.2268 32.124L20.2176 32.1474H13.7289C13.3416 32.1474 13.1019 31.7216 13.2955 31.3825L16.5917 25.6491L20.2268 32.124Z" fill="#FF8000"/>
<path d="M43.132 26.3462L40.7924 31.5532C40.6287 31.9158 40.2738 32.1474 39.8819 32.1474H33.5523L36.1662 26.3322C36.2999 26.0351 36.2837 25.6912 36.1247 25.4082L23.682 3.23275C23.493 2.89357 23.7328 2.47252 24.1177 2.47252H29.6314C29.991 2.47252 30.3229 2.66901 30.5027 2.9848L43.0952 25.4199C43.2542 25.7029 43.2703 26.0468 43.1366 26.3439L43.132 26.3462Z" fill="#FF8000"/>
<path d="M13.4753 20.0936L6.83447 31.6421C6.65468 31.9532 6.32506 32.1474 5.97008 32.1474H0.502507C0.115259 32.1474 -0.124466 31.7216 0.0691581 31.3825L9.62127 14.7696C9.8149 14.4304 10.299 14.4351 10.488 14.7743L13.473 20.0936H13.4753Z" fill="#F8AF5E"/>
<path d="M29.7973 26.3462L27.4577 31.5532C27.2941 31.9158 26.9391 32.1474 26.5472 32.1474H20.2176L22.8315 26.3322C22.9652 26.0351 22.949 25.6912 22.79 25.4082L10.345 3.23275C10.156 2.89357 10.3957 2.47252 10.7807 2.47252H16.2944C16.654 2.47252 16.9859 2.66901 17.1657 2.9848L29.7581 25.4199C29.9172 25.7029 29.9333 26.0468 29.7996 26.3439L29.7973 26.3462Z" fill="#F8AF5E"/>
<path d="M69.6032 0.591813V28.7485C69.6032 29.062 69.4811 29.3637 69.2621 29.5836L64.6704 34.2667C64.4514 34.4912 64.1541 34.6152 63.8429 34.6152H51.746C51.4233 34.6152 51.1628 34.3509 51.1628 34.0234V29.8292C51.1628 29.5018 51.4233 29.2374 51.746 29.2374H63.7161C64.0388 29.2374 64.2993 28.9731 64.2993 28.6456V0.591813C64.2993 0.264327 64.5598 0 64.8825 0H69.0154C69.3381 0 69.5986 0.264327 69.5986 0.591813H69.6032Z" fill="#2D353D"/>
<path d="M95.8808 8.54503V23.4269C95.8808 23.7404 95.7586 24.0421 95.5396 24.2643L90.9802 28.8912C90.7613 29.1135 90.4639 29.2374 90.155 29.2374H75.4903C75.1676 29.2374 74.9071 28.9731 74.9071 28.6456V8.54503C74.9071 8.21754 75.1676 7.95322 75.4903 7.95322H79.3928C79.7155 7.95322 79.9759 8.21754 79.9759 8.54503V23.2655C79.9759 23.593 80.2364 23.8573 80.5591 23.8573H89.9937C90.3164 23.8573 90.5768 23.593 90.5768 23.2655V8.54503C90.5768 8.21754 90.8373 7.95322 91.16 7.95322H95.293C95.6157 7.95322 95.8762 8.21754 95.8762 8.54503H95.8808Z" fill="#2D353D"/>
<path d="M143.134 13.7661V28.648C143.134 28.9754 142.874 29.2398 142.551 29.2398H138.418C138.095 29.2398 137.835 28.9754 137.835 28.648V13.9275C137.835 13.6 137.574 13.3357 137.252 13.3357H122.746C122.423 13.3357 122.163 13.6 122.163 13.9275V28.648C122.163 28.9754 121.902 29.2398 121.58 29.2398H117.447C117.124 29.2398 116.864 28.9754 116.864 28.648V13.9275C116.864 13.6 116.603 13.3357 116.28 13.3357H106.846C106.523 13.3357 106.263 13.6 106.263 13.9275V28.648C106.263 28.9754 106.002 29.2398 105.68 29.2398H101.547C101.224 29.2398 100.963 28.9754 100.963 28.648V8.54503C100.963 8.21754 101.224 7.95322 101.547 7.95322H116.449C116.755 7.95322 117.048 8.07485 117.265 8.2924L121.176 12.1754C121.545 12.5427 122.17 12.276 122.17 11.752V8.54737C122.17 8.21988 122.43 7.95556 122.753 7.95556H137.418C137.727 7.95556 138.024 8.07953 138.243 8.30175L142.802 12.9287C143.021 13.1509 143.143 13.4526 143.143 13.7661H143.134Z" fill="#2D353D"/>
<path d="M163.702 7.95322H149.021C148.699 7.95322 148.438 8.21755 148.438 8.54503V39.4059C148.438 39.7333 148.699 39.9977 149.021 39.9977H153.154C153.477 39.9977 153.737 39.7333 153.737 39.4059V25.4456C153.737 24.9193 154.362 24.655 154.731 25.0222L158.622 28.8983C158.841 29.1158 159.134 29.2374 159.44 29.2374H168.829C169.151 29.2374 169.412 28.9731 169.412 28.6456V13.7637C169.412 13.4503 169.29 13.1485 169.071 12.9263L164.53 8.29942C164.311 8.0772 164.013 7.95088 163.702 7.95088V7.95322ZM163.527 23.8597H154.092C153.77 23.8597 153.509 23.5953 153.509 23.2678V13.6936C153.509 13.3661 153.77 13.1018 154.092 13.1018H163.527C163.85 13.1018 164.11 13.3661 164.11 13.6936V23.2678C164.11 23.5953 163.85 23.8597 163.527 23.8597Z" fill="#2D353D"/>
</g>
<defs>
<clipPath id="clip0_1_89">
<rect width="169.412" height="40" fill="white"/>
</clipPath>
</defs>
</svg>
