<svg version="1.2" xmlns="http://www.w3.org/2000/svg" viewBox="0 0 183 53" width="183" height="53">
	<defs>
		<clipPath clipPathUnits="userSpaceOnUse" id="cp1">
			<path d="m0 0h169.41v40h-169.41z"/>
		</clipPath>
	</defs>
	<style>
		.s0 { fill: #ff8000 } 
		.s1 { fill: #f8af5e } 
		.s2 { fill: #2d353d } 
		.s3 { fill: #5b6978 } 
	</style>
	<g id="Clip-Path" clip-path="url(#cp1)">
		<g>
			<path class="s0" d="m20.23 32.12l-0.01 0.03h-6.49c-0.39 0-0.63-0.43-0.43-0.77l3.29-5.73z"/>
			<path class="s0" d="m43.13 26.35l-2.34 5.2c-0.16 0.37-0.52 0.6-0.91 0.6h-6.33l2.62-5.82c0.13-0.29 0.11-0.64-0.05-0.92l-12.44-22.18c-0.19-0.34 0.05-0.76 0.44-0.76h5.51c0.36 0 0.69 0.2 0.87 0.51l12.6 22.44c0.15 0.28 0.17 0.63 0.04 0.92z"/>
			<path class="s1" d="m13.48 20.09l-6.65 11.55c-0.18 0.31-0.5 0.51-0.86 0.51h-5.47c-0.38 0-0.62-0.43-0.43-0.77l9.55-16.61c0.19-0.34 0.68-0.33 0.87 0l2.98 5.32z"/>
			<path class="s1" d="m29.8 26.35l-2.34 5.2c-0.17 0.37-0.52 0.6-0.91 0.6h-6.33l2.61-5.82c0.14-0.29 0.12-0.64-0.04-0.92l-12.45-22.18c-0.18-0.34 0.06-0.76 0.44-0.76h5.51c0.36 0 0.7 0.2 0.88 0.51l12.59 22.44c0.16 0.28 0.17 0.63 0.04 0.92z"/>
			<path class="s2" d="m69.6 0.59v28.16c0 0.31-0.12 0.61-0.34 0.83l-4.59 4.69c-0.22 0.22-0.52 0.35-0.83 0.35h-12.09c-0.33 0-0.59-0.27-0.59-0.6v-4.19c0-0.33 0.26-0.59 0.59-0.59h11.97c0.32 0 0.58-0.27 0.58-0.59v-28.06c0-0.33 0.26-0.59 0.58-0.59h4.14c0.32 0 0.58 0.26 0.58 0.59z"/>
			<path class="s2" d="m95.88 8.55v14.88c0 0.31-0.12 0.61-0.34 0.83l-4.56 4.63c-0.22 0.22-0.52 0.35-0.82 0.35h-14.67c-0.32 0-0.58-0.27-0.58-0.59v-20.1c0-0.33 0.26-0.6 0.58-0.6h3.9c0.33 0 0.59 0.27 0.59 0.6v14.72c0 0.32 0.26 0.59 0.58 0.59h9.43c0.33 0 0.59-0.27 0.59-0.59v-14.72c0-0.33 0.26-0.6 0.58-0.6h4.13c0.33 0 0.59 0.27 0.59 0.6z"/>
			<path class="s2" d="m143.13 13.77v14.88c0 0.33-0.26 0.59-0.58 0.59h-4.13c-0.32 0-0.58-0.26-0.58-0.59v-14.72c0-0.33-0.27-0.59-0.59-0.59h-14.5c-0.33 0-0.59 0.26-0.59 0.59v14.72c0 0.33-0.26 0.59-0.58 0.59h-4.13c-0.33 0-0.59-0.26-0.59-0.59v-14.72c0-0.33-0.26-0.59-0.58-0.59h-9.43c-0.33 0-0.59 0.26-0.59 0.59v14.72c0 0.33-0.26 0.59-0.58 0.59h-4.13c-0.33 0-0.59-0.26-0.59-0.59v-20.1c0-0.33 0.26-0.6 0.59-0.6h14.9c0.3 0 0.6 0.12 0.82 0.34l3.91 3.89c0.37 0.36 0.99 0.1 0.99-0.43v-3.2c0-0.33 0.26-0.59 0.58-0.59h14.67c0.31 0 0.6 0.12 0.82 0.34l4.56 4.63c0.22 0.22 0.34 0.52 0.34 0.84z"/>
			<path class="s2" d="m163.7 7.95h-14.68c-0.32 0-0.58 0.27-0.58 0.6v30.86c0 0.32 0.26 0.59 0.58 0.59h4.13c0.33 0 0.59-0.27 0.59-0.59v-13.96c0-0.53 0.62-0.79 0.99-0.43l3.89 3.88c0.22 0.22 0.51 0.34 0.82 0.34h9.39c0.32 0 0.58-0.27 0.58-0.59v-14.89c0-0.31-0.12-0.61-0.34-0.83l-4.54-4.63c-0.22-0.22-0.52-0.35-0.83-0.35zm-0.17 15.91h-9.44c-0.32 0-0.58-0.27-0.58-0.59v-9.58c0-0.33 0.26-0.59 0.58-0.59h9.44c0.32 0 0.58 0.26 0.58 0.59v9.58c0 0.32-0.26 0.59-0.58 0.59z"/>
		</g>
	</g>
	<path id="Todos" class="s3" aria-label="Todos"  d="m131 47.8l1.5-0.2 0.3 3.2-7.9 0.9-0.3-3.2 1.4-0.2-0.8-7.8-1.3 0.2-0.1 2.4-2.5 0.3-0.6-5.5 13.3-1.5 0.6 5.6-2.5 0.2-0.6-2.4-1.3 0.2zm10.6 2.2q-1.6 0.2-2.8-0.3-1.3-0.4-2.1-1.5-0.8-1.1-1-2.6-0.1-1.6 0.4-2.7 0.6-1.2 1.7-1.9 1.2-0.7 2.8-0.8 1.6-0.2 2.9 0.2 1.3 0.5 2 1.5 0.8 1 1 2.5 0.2 1.6-0.4 2.8-0.5 1.2-1.7 1.9-1.1 0.7-2.8 0.9zm-0.2-2.6q0.6 0 0.8-0.6 0.2-0.6 0-1.9-0.1-1.2-0.4-1.7-0.3-0.5-0.9-0.4-0.6 0-0.8 0.6-0.2 0.5-0.1 1.7 0.1 1.3 0.5 1.8 0.3 0.6 0.9 0.5zm11.1 1.4q-1.3 0.2-2.3-0.4-1-0.6-1.6-1.7-0.7-1.1-0.8-2.5-0.1-1.2 0.2-2.4 0.4-1.1 1.2-1.9 0.9-0.8 2.1-0.9 0.9-0.1 1.6 0.1 0.7 0.3 1.3 0.8l-0.2-2.4-1.5 0.2-0.2-2.4 5.6-1.2 1.2 11.2 1.1-0.2 0.3 2.7-5.4 0.6-0.2-1.2q-0.3 0.7-1 1.1-0.6 0.4-1.4 0.5zm1.1-2.7q0.4-0.1 0.7-0.3 0.3-0.2 0.5-0.5l-0.4-3.4q-0.2-0.2-0.6-0.3-0.3-0.2-0.7-0.2-0.7 0.1-1.1 0.7-0.3 0.6-0.2 1.7 0.1 1.1 0.6 1.7 0.4 0.7 1.2 0.6zm13.5 1.1q-1.6 0.2-2.8-0.3-1.3-0.4-2.1-1.5-0.8-1-1-2.6-0.1-1.5 0.4-2.7 0.6-1.2 1.7-1.8 1.2-0.7 2.8-0.9 1.6-0.2 2.9 0.3 1.3 0.4 2 1.4 0.8 1 1 2.5 0.2 1.6-0.4 2.8-0.5 1.2-1.7 1.9-1.1 0.8-2.8 0.9zm-0.2-2.5q0.6-0.1 0.8-0.7 0.2-0.6 0-1.9-0.1-1.2-0.4-1.7-0.3-0.5-0.9-0.4-0.6 0.1-0.8 0.6-0.2 0.6-0.1 1.8 0.1 1.2 0.5 1.8 0.3 0.5 0.9 0.5zm12 1.3q-1.8 0.2-3.3-0.6l-0.2 0.8-1.6 0.2-0.4-3.5 2-0.3q0.1 0.7 0.7 1.2 0.6 0.5 1.3 0.4 0.2 0 0.4-0.2 0.2-0.2 0.1-0.5 0-0.3-0.4-0.5-0.4-0.3-1.2-0.6-1-0.3-1.6-0.6-0.6-0.3-1.1-0.9-0.5-0.5-0.6-1.4-0.1-0.9 0.4-1.6 0.5-0.7 1.4-1.1 0.9-0.4 2-0.6 1.5-0.1 2.8 0.5l0.2-0.6 1.4-0.2 0.3 2.9-1.7 0.2q-0.2-0.6-0.7-0.9-0.5-0.3-1-0.2-0.7 0.1-0.6 0.5 0 0.3 0.4 0.4 0.3 0.2 1.1 0.5 0.5 0.1 0.9 0.2 0.4 0.2 0.8 0.3 0.6 0.3 1.2 1 0.5 0.6 0.6 1.5 0.1 1.1-0.4 1.9-0.4 0.7-1.3 1.2-0.8 0.4-1.9 0.6z"/>
</svg>